

<svg id="Layer_1" data-name="Layer 1" xmlns="http://www.w3.org/2000/svg" viewBox="0 0 8.32 8.28"><defs><style>.cls-1{fill:#010101;}.cls-2{fill:#4d4d4d;}.cls-3{fill:#353535;}.cls-4{fill:#757575;}.cls-5{fill:#595959;}.cls-6{fill:#1b1b1b;}.cls-7{fill:#686868;}.cls-8{fill:gray;}.cls-9{fill:#999;}.cls-10{fill:#b3b3b3;}.cls-11{fill:#ccc;}.cls-12{fill:#e6e6e6;}</style></defs><title>s8</title><path class="cls-1" d="M5.4,2V2.7a.27.27,0,0,1-.3.3.28.28,0,0,1-.32-.29V1.23a.3.3,0,0,1,.33-.3.28.28,0,0,1,.29.29V2Z" transform="translate(-0.93 -0.93)"/><path class="cls-2" d="M8.21,5.38H7.46a.3.3,0,0,1,0-.6H9a.27.27,0,0,1,.28.31A.27.27,0,0,1,9,5.38Z" transform="translate(-0.93 -0.93)"/><path class="cls-3" d="M6.83,3.84A.24.24,0,0,1,7,3.6c.44-.26.87-.54,1.32-.78a.3.3,0,0,1,.39.12.28.28,0,0,1-.09.39q-.66.41-1.32.78A.29.29,0,0,1,6.83,3.84Z" transform="translate(-0.93 -0.93)"/><path class="cls-4" d="M5.4,8.18v.73a.28.28,0,0,1-.3.3.27.27,0,0,1-.31-.29V7.44a.27.27,0,0,1,.3-.29.27.27,0,0,1,.31.29v.74Z" transform="translate(-0.93 -0.93)"/><path class="cls-5" d="M7.16,6A.3.3,0,0,1,7.3,6l.78.44.51.28a.27.27,0,0,1,.12.4.29.29,0,0,1-.41.12C7.86,7,7.43,6.75,7,6.5a.26.26,0,0,1-.14-.32A.29.29,0,0,1,7.16,6Z" transform="translate(-0.93 -0.93)"/><path class="cls-6" d="M6,3a.23.23,0,0,1,0-.15c.24-.42.49-.85.75-1.27a.28.28,0,0,1,.4-.1.27.27,0,0,1,.11.39c-.25.44-.51.87-.77,1.3a.26.26,0,0,1-.32.12A.28.28,0,0,1,6,3Z" transform="translate(-0.93 -0.93)"/><path class="cls-7" d="M7,8.69a.23.23,0,0,1-.24-.14L6,7.28a.29.29,0,0,1,.11-.41.28.28,0,0,1,.4.11q.38.63.72,1.26A.28.28,0,0,1,7,8.69Z" transform="translate(-0.93 -0.93)"/><path class="cls-8" d="M3.13,8.67a.28.28,0,0,1-.26-.43c.24-.42.49-.84.74-1.26a.28.28,0,0,1,.52,0,.28.28,0,0,1,0,.29c-.24.42-.49.84-.74,1.26A.24.24,0,0,1,3.13,8.67Z" transform="translate(-0.93 -0.93)"/><path class="cls-9" d="M1.77,7.35a.3.3,0,0,1-.29-.22.26.26,0,0,1,.14-.32c.3-.16.57-.34.86-.51l.41-.25a.29.29,0,1,1,.3.49L2,7.29A.27.27,0,0,1,1.77,7.35Z" transform="translate(-0.93 -0.93)"/><path class="cls-10" d="M2.66,5.38a1.68,1.68,0,0,0-.55,0,3.53,3.53,0,0,0-.65,0,1,1,0,0,1-.34,0c-.11,0-.2-.16-.19-.29A.28.28,0,0,1,1.2,4.8H2.69A.29.29,0,0,1,3,5.08.32.32,0,0,1,2.66,5.38Z" transform="translate(-0.93 -0.93)"/><path class="cls-11" d="M3.29,3.89a.26.26,0,0,1-.41.24L1.76,3.49l-.15-.07A.26.26,0,0,1,1.47,3a.3.3,0,0,1,.41-.11l.24.14.93.53a.59.59,0,0,1,.18.13A.2.2,0,0,1,3.29,3.89Z" transform="translate(-0.93 -0.93)"/><path class="cls-12" d="M2.91,1.75a.25.25,0,0,1,.2-.26.21.21,0,0,1,.27.13c.19.32.37.64.56.95l.17.32a.25.25,0,1,1-.43.25c-.2-.31-.37-.65-.56-1L3,1.89A.18.18,0,0,1,2.91,1.75Z" transform="translate(-0.93 -0.93)"/></svg>
